<?xml version="1.0" encoding="UTF-8"?>
<svg id="Layer_1" data-name="Layer 1" xmlns="http://www.w3.org/2000/svg" viewBox="0 0 120.5 120.02">
  <defs>
    <style>
      .cls-1 {
        fill: #fff;
      }

      .cls-2 {
        fill: #eaebeb;
      }
    </style>
  </defs>
  <g>
    <path class="cls-2" d="M63.48,115.52c-28.4,0-51.51-23.11-51.51-51.51S35.08,12.49,63.48,12.49s51.51,23.11,51.51,51.51-23.11,51.51-51.51,51.51Z"/>
    <path class="cls-1" d="M63.48,14.99c27.03,0,49.01,21.99,49.01,49.01s-21.99,49.01-49.01,49.01S14.47,91.03,14.47,64.01,36.46,14.99,63.48,14.99M63.48,9.99h0c-29.83,0-54.01,24.18-54.01,54.01s24.18,54.01,54.01,54.01h0c29.83,0,54.01-24.18,54.01-54.01S93.31,9.99,63.48,9.99h0Z"/>
  </g>
  <g>
    <path d="M56.51,48.02c-.17-.1-.34-.2-.51-.31-2.03-1.34-3.41-3.39-3.9-5.77-.49-2.38-.02-4.81,1.32-6.83h0c1.34-2.03,3.39-3.41,5.77-3.9,2.38-.49,4.81-.02,6.83,1.32,2.03,1.34,3.41,3.39,3.9,5.77.49,2.38.02,4.81-1.32,6.83-1.34,2.03-3.39,3.41-5.77,3.9-2.18.45-4.41.09-6.33-1.01ZM56.22,36.94c-.85,1.28-1.15,2.82-.84,4.33.31,1.51,1.18,2.8,2.47,3.65,1.28.85,2.82,1.15,4.33.84,1.51-.31,2.8-1.18,3.65-2.47.85-1.28,1.15-2.82.84-4.33-.31-1.51-1.18-2.8-2.47-3.65-1.28-.85-2.82-1.15-4.33-.84-1.51.31-2.8,1.18-3.65,2.47h0Z"/>
    <path d="M53.34,71.47c-.51,1.25-.85,2.54-1.03,3.84-.71.09-1.42.11-2.12.07-3.01-.15-5.94-1.36-8.2-3.52-5.08-4.87-5.25-12.95-.39-18.03s12.95-5.25,18.03-.39c2.37,2.27,3.75,5.33,3.91,8.54-1.26.4-2.47.96-3.6,1.67.31-2.83-.71-5.65-2.77-7.63-3.65-3.5-9.47-3.38-12.97.28-3.5,3.65-3.38,9.47.28,12.97,2.38,2.27,5.77,3.09,8.88,2.19Z"/>
    <path d="M88.91,52.84h-3.9v16.42c-3.11-3.75-7.8-6.15-13.05-6.15-9.34,0-16.94,7.6-16.94,16.94s7.6,16.94,16.94,16.94,16.94-7.6,16.94-16.94c0-.07,0-.14,0-.22h0v-27ZM71.97,93.1c-7.19,0-13.05-5.85-13.05-13.05s5.85-13.05,13.05-13.05,13.05,5.85,13.05,13.05-5.85,13.05-13.05,13.05Z"/>
  </g>
  <g>
    <circle class="cls-1" cx="22" cy="23" r="21"/>
    <g>
      <rect x="8.62" y="20.13" width="27" height="6" rx="3" ry="3"/>
      <rect x="8.62" y="20.12" width="27" height="6" rx="3" ry="3" transform="translate(45.25 1) rotate(90)"/>
    </g>
  </g>
</svg>