<?xml version="1.0" encoding="UTF-8"?>
<svg id="Layer_1" data-name="Layer 1" xmlns="http://www.w3.org/2000/svg" viewBox="0 0 108.03 108.03">
  <defs>
    <style>
      .cls-1 {
        fill: #eaebeb;
      }
    </style>
  </defs>
  <rect class="cls-1" x="0" y="0" width="108.03" height="108.03" rx="54.01" ry="54.01"/>
  <g>
    <path d="M47.04,38.03c-.17-.1-.34-.2-.51-.31-2.03-1.34-3.41-3.39-3.9-5.77-.49-2.38-.02-4.81,1.32-6.83h0c1.34-2.03,3.39-3.41,5.77-3.9,2.38-.49,4.81-.02,6.83,1.32,2.03,1.34,3.41,3.39,3.9,5.77.49,2.38.02,4.81-1.32,6.83-1.34,2.03-3.39,3.41-5.77,3.9-2.18.45-4.41.09-6.33-1.01ZM46.75,26.95c-.85,1.28-1.15,2.82-.84,4.33.31,1.51,1.18,2.8,2.47,3.65,1.28.85,2.82,1.15,4.33.84,1.51-.31,2.8-1.18,3.65-2.47.85-1.28,1.15-2.82.84-4.33-.31-1.51-1.18-2.8-2.47-3.65-1.28-.85-2.82-1.15-4.33-.84-1.51.31-2.8,1.18-3.65,2.47h0Z"/>
    <path d="M43.87,61.47c-.51,1.25-.85,2.54-1.03,3.84-.71.09-1.42.11-2.12.07-3.01-.15-5.94-1.36-8.2-3.52-5.08-4.87-5.25-12.95-.39-18.03s12.95-5.25,18.03-.39c2.37,2.27,3.75,5.33,3.91,8.54-1.26.4-2.47.96-3.6,1.67.31-2.83-.71-5.65-2.77-7.63-3.65-3.5-9.47-3.38-12.97.28-3.5,3.65-3.38,9.47.28,12.97,2.38,2.27,5.77,3.09,8.88,2.19Z"/>
    <path d="M79.44,42.84h-3.9v16.42c-3.11-3.75-7.8-6.15-13.05-6.15-9.34,0-16.94,7.6-16.94,16.94s7.6,16.94,16.94,16.94,16.94-7.6,16.94-16.94c0-.07,0-.14,0-.22h0v-27ZM62.5,83.11c-7.19,0-13.05-5.85-13.05-13.05s5.85-13.05,13.05-13.05,13.05,5.85,13.05,13.05-5.85,13.05-13.05,13.05Z"/>
  </g>
</svg>