<?xml version="1.0" encoding="UTF-8"?>
<svg id="Layer_1" data-name="Layer 1" xmlns="http://www.w3.org/2000/svg" viewBox="0 0 115.47 83.71">
  <path d="M6.88,51.99c-.26-.15-.51-.3-.76-.47-3.04-2.01-5.11-5.08-5.84-8.65-.73-3.57-.02-7.2,1.98-10.24h0c2.01-3.04,5.08-5.11,8.65-5.84,3.57-.73,7.2-.02,10.24,1.98,3.04,2.01,5.11,5.08,5.84,8.65.73,3.57.02,7.2-1.98,10.24-2.01,3.04-5.08,5.11-8.65,5.84-3.27.67-6.61.13-9.48-1.52ZM6.44,35.39c-1.27,1.92-1.72,4.23-1.26,6.48.46,2.26,1.77,4.2,3.7,5.47,1.92,1.27,4.23,1.72,6.48,1.26,2.26-.46,4.2-1.77,5.47-3.7,1.27-1.92,1.72-4.23,1.26-6.48-.46-2.26-1.77-4.2-3.7-5.47-1.92-1.27-4.23-1.72-6.48-1.26-2.26.46-4.2,1.77-5.47,3.7h0ZM48.5,53.87c-7.56-.48-13.33-7.04-12.84-14.6.48-7.56,7.04-13.33,14.6-12.84,4.28.28,8.16,2.52,10.54,6.06.62-1.91,1.47-3.72,2.52-5.4-3.28-3.52-7.81-5.7-12.72-6.01-10.52-.68-19.61,7.33-20.29,17.85s7.33,19.61,17.85,20.29c4.68.3,9.21-1.14,12.8-3.88.84-.64,1.63-1.35,2.36-2.13-1.05-1.68-1.9-3.49-2.53-5.4-2.69,4.04-7.37,6.38-12.29,6.07ZM115.47,0h-5.84v24.6c-4.66-5.62-11.69-9.21-19.55-9.21-14,0-25.39,11.39-25.39,25.39s11.39,25.39,25.39,25.39,25.39-11.39,25.39-25.39c0-.11,0-.22,0-.32h0V0ZM90.08,60.33c-10.78,0-19.55-8.77-19.55-19.55s8.77-19.55,19.55-19.55,19.55,8.77,19.55,19.55-8.77,19.55-19.55,19.55ZM24.12,70.88c-.32-.16-.72-.3-1.19-.44-.47-.14-.94-.2-1.41-.2-.73,0-1.32.18-1.76.55s-.66.83-.66,1.38c0,.42.13.77.38,1.04s.58.51.99.71.84.38,1.3.56c.37.14.73.29,1.09.46.36.17.69.37.98.61.29.24.53.54.7.89.17.36.26.79.26,1.32,0,.62-.15,1.16-.44,1.64-.29.48-.7.84-1.22,1.11-.52.26-1.13.39-1.82.39-.55,0-1.06-.07-1.51-.2-.45-.14-.85-.3-1.19-.48s-.61-.34-.81-.46l.36-.63c.23.17.51.33.84.5.33.17.69.31,1.07.42.39.12.77.17,1.16.17.45,0,.89-.09,1.31-.27.42-.18.77-.45,1.05-.81.28-.36.42-.82.42-1.37s-.13-.96-.39-1.29c-.26-.33-.6-.6-1-.81-.41-.21-.84-.4-1.3-.56-.36-.14-.71-.28-1.07-.43-.36-.15-.68-.33-.97-.55-.29-.21-.53-.47-.7-.78-.17-.3-.26-.67-.26-1.1,0-.53.14-1,.41-1.4s.64-.71,1.11-.93c.47-.22,1-.34,1.59-.35.52,0,1.05.07,1.59.2s1.01.31,1.4.52l-.3.6ZM29.21,80.94c-.58,0-1.04-.17-1.38-.51s-.53-.78-.55-1.33v-4.47h.74v4.25c.02.4.15.73.38.99.24.26.59.4,1.06.42.4,0,.77-.1,1.11-.31s.62-.49.84-.85c.21-.36.32-.77.32-1.23v-3.26h.74v6.13h-.66l-.08-1.93.11.42c-.1.31-.29.6-.56.85-.27.26-.58.46-.94.6-.36.15-.74.22-1.14.22ZM38.66,80.89c-.59,0-1.13-.15-1.65-.46s-.89-.71-1.13-1.2l.13-.27v4.75h-.74v-9.13h.66l.08,2.01-.14-.46c.27-.49.67-.9,1.19-1.21.52-.32,1.09-.48,1.71-.48.59,0,1.11.14,1.58.42.47.28.84.67,1.12,1.15.28.49.42,1.04.42,1.67s-.14,1.17-.43,1.66c-.29.49-.67.87-1.16,1.14-.49.27-1.03.41-1.64.41ZM38.53,80.28c.48,0,.92-.12,1.31-.34.39-.23.71-.54.94-.93.24-.39.35-.83.35-1.31s-.12-.93-.35-1.33c-.23-.39-.54-.7-.92-.93-.38-.23-.81-.35-1.29-.35s-.88.1-1.25.31c-.38.21-.68.49-.91.85-.23.36-.37.76-.41,1.21v.5c.03.43.17.82.4,1.18.24.36.54.63.91.84s.78.31,1.22.31ZM46.75,80.89c-.64,0-1.2-.14-1.69-.42-.49-.28-.88-.67-1.15-1.15-.28-.49-.42-1.03-.42-1.64s.15-1.14.44-1.63c.29-.49.69-.88,1.18-1.18.5-.29,1.05-.44,1.65-.44.73,0,1.35.21,1.84.64s.85.99,1.07,1.68l-5.36,2.07-.22-.53,4.91-1.91-.16.22c-.18-.42-.45-.78-.81-1.08-.36-.3-.8-.46-1.33-.46-.47,0-.89.12-1.27.34-.38.23-.68.54-.9.93-.22.39-.34.83-.34,1.32,0,.46.11.89.32,1.29s.52.72.9.96c.39.24.83.36,1.33.36.33,0,.66-.06.96-.19.31-.12.58-.29.82-.49l.38.53c-.29.23-.63.42-1.01.57-.38.15-.77.22-1.17.22ZM52.36,74.63l.08,1.88-.09-.24c.14-.38.35-.7.64-.97.29-.27.62-.48.98-.63s.71-.22,1.04-.22l-.03.72c-.47,0-.9.1-1.28.31-.38.21-.69.49-.91.84-.23.35-.34.75-.34,1.18v3.25h-.74v-6.13h.64ZM65.83,79.81c-.13.1-.36.25-.7.42-.34.18-.76.33-1.25.47-.49.14-1.04.2-1.63.19-.91-.02-1.72-.18-2.44-.49-.72-.31-1.32-.73-1.82-1.26-.5-.53-.88-1.15-1.14-1.83-.26-.69-.39-1.43-.39-2.21,0-.88.13-1.68.4-2.42s.65-1.36,1.15-1.9,1.09-.95,1.78-1.24c.69-.29,1.45-.44,2.29-.44.77,0,1.46.1,2.05.31.6.21,1.08.43,1.46.67l-.89,2.15c-.26-.2-.61-.41-1.04-.62s-.93-.32-1.5-.32c-.44,0-.86.09-1.26.27-.4.18-.76.44-1.07.78-.31.33-.55.72-.73,1.17s-.27.93-.27,1.45c0,.55.08,1.06.24,1.52s.39.85.7,1.18.67.58,1.09.76.9.27,1.44.27c.62,0,1.15-.1,1.58-.3s.77-.41,1-.63l.94,2.04ZM67.75,68.39h2.2v12.38h-2.2v-12.38ZM75.57,80.95c-.84,0-1.54-.16-2.13-.47-.58-.31-1.02-.75-1.33-1.3-.3-.55-.45-1.19-.45-1.91s.18-1.31.53-1.87c.35-.55.83-1,1.43-1.33.6-.33,1.26-.49,1.99-.49.98,0,1.79.29,2.42.86.63.57,1.04,1.39,1.23,2.47l-5.33,1.69-.49-1.19,3.86-1.3-.46.2c-.08-.27-.23-.51-.45-.71s-.54-.31-.96-.31c-.32,0-.61.08-.85.23s-.43.37-.56.64c-.13.28-.2.6-.2.98,0,.43.08.79.24,1.07.16.29.37.5.64.65s.57.22.91.22c.24,0,.47-.04.7-.13.23-.08.45-.19.67-.33l.97,1.63c-.37.21-.76.38-1.18.5s-.82.19-1.2.19ZM83.76,80.95c-.64,0-1.22-.13-1.73-.38s-.93-.65-1.23-1.18-.45-1.21-.45-2.04c0-.77.16-1.44.47-2.01.31-.56.73-1,1.24-1.31.51-.31,1.06-.46,1.63-.46.68,0,1.19.11,1.54.34.35.22.64.47.87.75l-.09.27.2-1h2.04v6.85h-2.2v-1.49l.17.47s-.08.06-.19.18-.26.26-.46.42c-.2.16-.46.3-.75.42s-.65.18-1.06.18ZM84.39,79.17c.26,0,.5-.04.71-.12.21-.08.39-.19.55-.34.16-.15.29-.34.41-.57v-1.68c-.08-.23-.21-.43-.38-.59-.17-.16-.37-.29-.6-.38s-.49-.13-.77-.13c-.31,0-.6.08-.87.24s-.48.38-.64.67c-.16.28-.23.61-.23.97s.08.7.25.99c.17.29.39.52.67.69.28.17.58.25.9.25ZM92.5,73.91l.17,1.22-.03-.11c.24-.43.58-.78,1.02-1.04s.98-.4,1.62-.4,1.19.19,1.62.57c.43.38.66.88.67,1.48v5.13h-2.2v-4.31c-.01-.3-.09-.55-.24-.73-.15-.18-.41-.27-.76-.27-.33,0-.63.11-.88.33s-.44.52-.58.89c-.14.38-.2.81-.2,1.3v2.79h-2.2v-6.85h1.99Z"/>
</svg>